<?xml version="1.0" encoding="UTF-8"?>
<svg width="88px" height="18px" viewBox="0 0 88 18" version="1.1" xmlns="http://www.w3.org/2000/svg" xmlns:xlink="http://www.w3.org/1999/xlink">
    <!-- Generator: Sketch 52.5 (67469) - http://www.bohemiancoding.com/sketch -->
    <title>Group 4</title>
    <desc>Created with Sketch.</desc>
    <g id="Homepage" stroke="none" stroke-width="1" fill="none" fill-rule="evenodd">
        <g transform="translate(-75.000000, -3860.000000)" fill="#4F4F4F" id="Group-4">
            <g transform="translate(75.000000, 3860.000000)">
                <polygon id="Path" points="17.208589 -1.0658141e-14 17.208589 18 20.2027511 18 20.2027511 12.7911979 27.3918492 12.7911979 27.3918492 17.9995553 30.3680982 17.9995553 30.3680982 0.0057812989 27.3834107 0.0057812989 27.3834107 10.0229934 20.1898714 10.0229934 20.1898714 -1.0658141e-14"></polygon>
                <path d="M71.3433845,17.8988284 C74.108177,11.9449147 76.8666466,6.00505043 79.642848,0.027052166 C82.421661,5.99487182 85.1874157,11.9341627 87.9634797,17.8961045 C87.8929647,17.9019823 87.8407313,17.9100105 87.7886355,17.9101539 C86.8537964,17.9108707 85.9189572,17.9075734 84.9841181,17.914168 C84.856009,17.9151715 84.7956658,17.8735969 84.7443946,17.7533173 C84.3958059,16.9367347 84.0371829,16.124883 83.6885941,15.308157 C83.6338866,15.1798492 83.5639214,15.1374144 83.430589,15.1377011 C80.8613965,15.1415719 78.2923415,15.1420019 75.7230116,15.136841 C75.5763459,15.1365542 75.5121539,15.1938985 75.4563467,15.3246435 C75.1070707,16.1409394 74.7495473,16.9535079 74.3975222,17.7685135 C74.3584846,17.8588308 74.3219213,17.9148848 74.2075578,17.9140246 C73.2855021,17.9078601 72.3633089,17.910584 71.4412532,17.9101539 C71.4173359,17.9101539 71.3934185,17.9047062 71.3433845,17.8988284 Z M82.4998735,12.569394 C81.5291584,10.3415686 80.5717765,8.1437055 79.5983122,5.90942883 C78.6157758,8.14714616 77.6498716,10.347303 76.674208,12.569394 L82.4998735,12.569394 Z" id="Combined-Shape"></path>
                <path d="M43.8018942,0.0705882353 C46.5818069,6.0405583 49.3486613,11.982573 52.1245878,17.9439414 C52.0509113,17.9483856 52.0026642,17.9538333 51.9545546,17.9538333 C51.0197154,17.9544068 50.0847389,17.9508227 49.1498998,17.9581341 C49.0121687,17.9591377 48.9514131,17.9088181 48.8978052,17.7833774 C48.5518281,16.972816 48.1951295,16.1669854 47.849015,15.356424 C47.7949947,15.2298365 47.7306652,15.1808071 47.5944462,15.1810938 C45.0187933,15.1853946 42.443003,15.1853946 39.8672126,15.1809505 C39.7375915,15.1808071 39.6760111,15.2268259 39.6250149,15.3456719 C39.2724399,16.1677022 38.9157413,16.9878689 38.5535444,17.8053116 C38.5256408,17.8679603 38.4455039,17.9473821 38.3891469,17.9478122 C37.4354763,17.9567005 36.4816682,17.95412 35.4969325,17.95412 C38.2668109,11.9895977 41.0277547,6.04428567 43.8018942,0.0705882353 Z M46.6605693,12.6162274 C45.6895792,10.3875418 44.7327471,8.19125567 43.7573584,5.95282154 C42.77331,8.19440961 41.8067186,10.3965735 40.8324295,12.6162274 L46.6605693,12.6162274 Z" id="Combined-Shape"></path>
                <path d="M69.1427927,0.286245107 C68.7937916,1.00046817 68.4601855,1.68372531 68.1263046,2.3668391 C66.4766936,5.74069005 64.8262579,9.11396757 63.1807706,12.4899689 C63.1231765,12.6080982 63.0896372,12.7526058 63.0890874,12.8850711 C63.0827644,14.3970965 63.0851012,15.9092652 63.0851012,17.4211473 L63.0851012,17.6949662 L60.3142606,17.6949662 L60.3142606,17.4416479 C60.3142606,15.9162899 60.316185,14.3910753 60.3106867,12.8658607 C60.3102743,12.7458678 60.2798965,12.6149795 60.2278007,12.5081757 C58.2738618,8.50841193 56.3157993,4.51079852 54.3582866,0.51289839 C54.3270841,0.448959513 54.2978059,0.38373039 54.2576687,0.297857324 C54.331895,0.293413142 54.3911386,0.286675189 54.4502447,0.286675189 C55.3342251,0.285958385 56.218068,0.289829124 57.1017734,0.282374368 C57.2425285,0.281227482 57.3124937,0.325956023 57.3761359,0.456700991 C58.8120026,3.39487875 60.2525428,6.33018929 61.6923957,9.26621664 C61.7234608,9.32958207 61.7564502,9.3922307 61.7972747,9.4725127 C62.2541789,8.52704882 62.7028357,7.59907494 63.1512176,6.67081434 C64.1510734,4.60125913 65.1518915,2.53227736 66.1472113,0.46042837 C66.2100287,0.329540041 66.2784819,0.281370843 66.4200617,0.282517728 C67.3164131,0.289685764 68.2127645,0.286245107 69.1427927,0.286245107" id="Fill-7"></path>
                <path d="M9.15526532,0.0554232506 L9.15526532,2.58703003 C9.07127962,2.58703003 7.65493169,2.58344602 7.57575697,2.58760348 C7.01850983,2.6167057 6.45384006,2.59892897 5.90566503,2.68953294 C5.16202738,2.81224971 4.61316507,3.22928602 4.45261631,4.05647731 C4.37962711,4.43294254 4.40436921,4.80840424 4.49179131,5.1799952 C4.65275243,5.86468595 4.98209731,6.47067168 5.31776517,7.07163977 C5.80037363,7.9359615 6.30799911,8.78551707 6.77576231,9.65829707 C7.16407587,10.3825554 7.47129031,11.1476715 7.61314503,11.9715655 C7.83279992,13.2477625 7.68695897,14.4591605 6.95363054,15.5395269 C6.30442525,16.4960295 5.37948297,17.0337755 4.30306405,17.2713242 C3.74141831,17.3951879 3.15970398,17.4321749 2.58472501,17.4746097 C2.1683704,17.5054323 0.430924957,17.4806309 -1.42108547e-14,17.4806309 L-1.42108547e-14,14.9808502 C0.081374027,14.9808502 1.47902792,14.983574 1.55902739,14.9804201 C2.15531207,14.9577691 2.76149358,14.99748 3.34554467,14.8969841 C4.51996981,14.6948455 5.05673599,13.843713 4.88244162,12.6110976 C4.77275163,11.8360896 4.47240999,11.1374929 4.1067767,10.4679984 C3.6637556,9.65643338 3.19008179,8.86307521 2.74224973,8.05409072 C2.3096753,7.27277485 1.91613841,6.47009823 1.72644895,5.5802583 C1.20975137,3.15731894 2.4309116,1.02296468 4.72189286,0.336840325 C5.49879489,0.104165892 6.29384113,0.0356394726 7.09850929,0.0545630863 C7.33232216,0.0601541541 8.90330824,0.0554232506 9.15526532,0.0554232506" id="Fill-9"></path>
            </g>
        </g>
    </g>
</svg>