<?xml version="1.0" encoding="UTF-8"?>
<svg width="122px" height="36px" viewBox="0 0 122 36" version="1.1" xmlns="http://www.w3.org/2000/svg" xmlns:xlink="http://www.w3.org/1999/xlink">
    <!-- Generator: Sketch 52.5 (67469) - http://www.bohemiancoding.com/sketch -->
    <title>Group 2</title>
    <desc>Created with Sketch.</desc>
    <g id="Symbols" stroke="none" stroke-width="1" fill="none" fill-rule="evenodd">
        <g id="molecule/bottom-nav/Desktop" transform="translate(-228.000000, -621.000000)" fill="#4F4F4F" fill-rule="nonzero">
            <g id="Group-14" transform="translate(78.000000, 621.000000)">
                <g id="Group-4">
                    <g id="Group-2" transform="translate(150.000000, 0.000000)">
                        <path d="M44.2136755,20.5861888 C43.4662692,21.1276996 42.5477667,21.4299737 41.5972747,21.4472318 C39.7864411,21.4472318 38.5679362,20.0620756 38.5679362,18.0155385 C38.5679362,15.9690014 39.7559785,14.5838452 41.5972747,14.5838452 C42.4879263,14.5865198 43.3501498,14.8731018 44.0376692,15.3949727 L44.321987,15.5946348 L44.5893812,14.0160559 L44.4810696,13.9474221 C43.6264361,13.4099229 42.6075231,13.1387873 41.5735816,13.1737312 C38.7845593,13.1737312 36.8349515,15.167233 36.8349515,18.0186582 C36.8349515,20.8700834 38.723634,22.8292683 41.5363495,22.8292683 C42.6347261,22.8282614 43.7079967,22.5263867 44.6198438,21.9619858 L44.7281553,21.8933519 L44.4844544,20.3896463 L44.2136755,20.5861888 Z" id="Shape"></path>
                        <path d="M49.6187026,13.1707317 L45.605178,22.6692341 L47.3161361,22.6692341 L48.4018718,20.039652 L52.4355649,20.039652 L53.5717218,22.8292683 L55.2524272,22.4746826 L51.2792395,13.1707317 L49.6187026,13.1707317 Z M51.8574022,18.596206 L48.9833959,18.596206 L50.4288026,15.0974183 L51.8574022,18.596206 Z" id="Shape"></path>
                        <path d="M63.2940261,16.0452962 C63.2940261,14.2694541 61.9404119,13.1707317 59.7670917,13.1707317 L57.0064725,13.1707317 L57.0064725,22.7270616 L58.5924938,22.7270616 L58.5924938,18.9965157 L59.6132005,18.9965157 L62.3706791,22.8292683 L64.0226537,22.4875145 L61.318566,18.7729384 C62.514922,18.4330734 63.3297272,17.3080206 63.2940261,16.0452962 Z M61.7048642,16.0836237 C61.7048642,17.0737515 61.0045024,17.6199187 59.7325447,17.6199187 L58.5924938,17.6199187 L58.5924938,14.6207898 L59.7137009,14.6207898 C61.0359087,14.6207898 61.6985829,15.1094657 61.6985829,16.0836237 L61.7048642,16.0836237 Z" id="Shape"></path>
                        <path d="M69.7902236,13.1707317 L65.776699,22.672321 L67.4876572,22.672321 L68.5733929,20.0418843 L72.6070859,20.0418843 L73.7432428,22.8292683 L75.4239482,22.4745674 L71.4473992,13.1707317 L69.7902236,13.1707317 Z M72.0289232,18.5979692 L69.154917,18.5979692 L70.6003236,15.0980445 L72.0289232,18.5979692 Z" id="Shape"></path>
                        <polygon id="Shape" points="75.4239482 13.1707317 75.4239482 14.655171 78.5031115 14.655171 78.5031115 22.8292683 80.1468508 22.8292683 80.1468508 14.655171 83.3171521 14.655171 83.089307 13.1707317"></polygon>
                        <polygon id="Shape" points="87.5432853 21.3641912 87.5432853 13.1707317 85.9482201 13.1707317 85.9482201 22.8292683 91.210356 22.8292683 90.9860993 21.3641912"></polygon>
                        <path d="M96.0927848,13.1707317 L92.0873786,22.6692341 L93.7977408,22.6692341 L94.8830984,20.039652 L98.9153864,20.039652 L100.054508,22.8292683 L101.734628,22.4746826 L97.7729048,13.1707317 L96.0927848,13.1707317 Z M98.3307047,18.596206 L95.4576994,18.596206 L96.9026026,15.0974183 L98.3307047,18.596206 Z" id="Shape"></path>
                        <polygon id="Shape" points="109.805907 19.8991142 105.094693 13.1707317 103.488673 13.1707317 103.488673 22.8292683 105.061304 22.8292683 105.061304 15.8265872 109.962837 22.8292683 111.381877 22.8292683 111.381877 13.1707317 109.805907 13.1707317"></polygon>
                        <polygon id="Shape" points="116.537298 21.344829 116.537298 18.5502107 120.288643 18.5502107 120.037466 17.0657714 116.537298 17.0657714 116.537298 14.655171 120.898645 14.655171 120.898645 13.1707317 114.889968 13.1707317 114.889968 22.8292683 121.029126 22.8292683 121.029126 21.344829"></polygon>
                        <polygon id="Shape" points="13.6641925 7.02439024 15.7864078 4.40173492 15.7744348 4.3949755 12.0867491 2.63414634 10.5242718 6.81484819 13.6641925 7.02439024"></polygon>
                        <polygon id="Shape" points="22.802589 9.66182824 23.7183159 12.2457769 23.7183159 12.2490685 26.3040916 13.1707317 26.3106796 9.66511989 22.8157649 9.65853659"></polygon>
                        <polygon id="Shape" points="8.77022654 4.40610461 8.77022654 4.3902439 5.53592886 5.535387 5.53592886 5.535387 4.38511327 8.77097138 8.76074179 8.7804878"></polygon>
                        <polygon id="Shape" points="4.38511327 27.2195122 5.52574967 30.4544288 5.5289181 30.4544288 8.76388967 31.6097561 8.77022654 27.229008 4.39778701 27.2195122"></polygon>
                        <polygon id="Shape" points="7.89320388 22.3210295 7.89320388 22.3210295 5.27361351 20.195122 5.26686199 20.2041173 3.50809061 23.898219 7.68053095 25.4634146"></polygon>
                        <polygon id="Shape" points="5.25739892 15.804878 7.89320388 13.6867604 7.89320388 13.6837602 7.69357296 10.5365854 3.50809061 12.0906717 5.25063177 15.7928774"></polygon>
                        <polygon id="Shape" points="23.7240387 23.7460666 22.802589 26.3348677 26.3040978 26.3414634 26.3106796 22.8424596 26.3106796 22.8292683 23.7240387 23.7460666"></polygon>
                        <polygon id="Shape" points="20.171521 4.38550136 22.2883689 7.02439024 22.2883689 7.02439024 25.433657 6.82452575 23.8835007 2.63414634 20.1835145 4.38211382"></polygon>
                        <polygon id="Shape" points="18.4209698 6.14634146 15.793396 8.513118 15.7864078 8.52261042 18.4139816 9.65853659 18.4139816 9.65853659 18.4174757 9.65853659 21.0485437 8.53210283"></polygon>
                        <polygon id="Shape" points="9.64724919 18.0014586 9.64724919 17.9985414 8.51998695 15.804878 6.13915858 17.9956243 8.50419896 20.1863706 8.51367176 20.195122 9.64724919 18.0014586"></polygon>
                        <polygon id="Shape" points="27.1877023 31.5938954 27.1877023 31.6097561 30.4211696 30.464613 30.4211696 30.464613 30.4211696 30.464613 31.5728155 27.2258565 27.19403 27.2195122"></polygon>
                        <polygon id="Shape" points="22.2955213 28.097561 22.2925298 28.097561 20.171521 30.7222368 20.1834872 30.7290015 23.8690765 32.4878049 25.433657 28.3072645 22.2955213 28.097561"></polygon>
                        <polygon id="Shape" points="14.9187962 34.5659549 14.9093851 34.5781079 17.9742589 36 17.9773959 36 21.0485437 34.5902608 17.9836699 31.6097561"></polygon>
                        <polygon id="Shape" points="21.036002 1.43100684 21.0485437 1.42189214 17.9820998 0 17.9820998 0 17.9820998 0 14.9093851 1.40973922 17.9726936 4.3902439"></polygon>
                        <polygon id="Shape" points="30.4321791 5.54557125 30.4290107 5.54240596 27.1972076 4.3902439 27.1877023 8.77415724 31.5601418 8.7804878 31.5728155 8.7804878"></polygon>
                        <polygon id="Shape" points="15.7864078 30.7330623 13.6695599 28.097561 13.6695599 28.097561 13.6695599 28.097561 10.5242718 28.2940379 12.0774265 32.4878049 15.7774127 30.7398374"></polygon>
                        <polygon id="Shape" points="12.2314659 12.2563726 12.2314659 12.2563726 13.1553398 9.66513846 9.65382481 9.65853659 9.64724919 13.1608289 9.64724919 13.1707317 12.2314659 12.2563726"></polygon>
                        <polygon id="Shape" points="15.7864078 27.4700446 18.4122311 29.8536585 21.0415508 27.4890123 21.0485437 27.4795284 18.4227204 26.3414634 18.4192239 26.3446247 18.4192239 26.3414634"></polygon>
                        <polygon id="Shape" points="1.4293345 14.9362514 1.41719578 14.9268293 0 17.995289 0 17.9984297 1.40809173 21.0731707 4.38511327 18.0078517"></polygon>
                        <polygon id="Shape" points="13.1553398 26.3414634 12.2420493 23.7550908 12.2420493 23.7550908 12.2387522 23.7517961 9.65384335 22.8292683 9.64724919 26.3348739 13.1421515 26.3414634"></polygon>
                    </g>
                </g>
            </g>
        </g>
    </g>
</svg>